<svg width="38" height="38" viewBox="0 0 38 38" fill="none" xmlns="http://www.w3.org/2000/svg">
<path opacity="0.1" d="M0 12C0 5.37258 5.37258 0 12 0H26C32.6274 0 38 5.37258 38 12V26C38 32.6274 32.6274 38 26 38H12C5.37258 38 0 32.6274 0 26V12Z" fill="#FDA758"/>
<path d="M19 27C23.4183 27 27 23.4183 27 19C27 14.5817 23.4183 11 19 11C14.5817 11 11 14.5817 11 19C11 23.4183 14.5817 27 19 27Z" fill="#FDA758"/>
<path d="M19 15V19" stroke="white" stroke-width="1.7" stroke-linecap="round" stroke-linejoin="round"/>
<path d="M20 22C20 22.5523 19.5523 23 19 23C18.4477 23 18 22.5523 18 22C18 21.4477 18.4477 21 19 21C19.5523 21 20 21.4477 20 22Z" fill="white"/>
</svg>
