<svg width="64" height="64" viewBox="0 0 64 64" fill="none" xmlns="http://www.w3.org/2000/svg">
<circle opacity="0.2" cx="32" cy="32" r="32" fill="#FC9D45"/>
<circle cx="32" cy="32" r="26" fill="#FC9D45"/>
<path d="M39.2909 29.5848C39.731 29.5848 40.1189 29.7445 40.4452 30.026C40.7262 30.3329 40.9 30.7173 40.9 31.1455V33.2061C40.9 33.6521 40.7368 34.0321 40.446 34.3256C40.1372 34.6127 39.7486 34.7909 39.3151 34.7909H35.8242C35.2419 34.7909 34.8151 35.2728 34.8151 35.8V39.3151C34.8151 39.7612 34.6519 40.1412 34.3612 40.4347C34.0524 40.7218 33.6637 40.9 33.2303 40.9H31.1697C30.7236 40.9 30.3436 40.7368 30.0501 40.446C29.763 40.1372 29.5848 39.7486 29.5848 39.3151V35.8242C29.5848 35.2419 29.103 34.8151 28.5758 34.8151H25.0848C24.6388 34.8151 24.2588 34.6519 23.9653 34.3612C23.6782 34.0524 23.5 33.6637 23.5 33.2303V31.1697C23.5 30.7236 23.6632 30.3436 23.954 30.0501C24.2627 29.763 24.6514 29.5848 25.0848 29.5848H28.5515C29.1339 29.5848 29.5606 29.103 29.5606 28.5758V25.0848C29.5606 24.6388 29.7238 24.2588 30.0146 23.9653C30.3233 23.6782 30.712 23.5 31.1455 23.5H33.2061C33.6521 23.5 34.0321 23.6632 34.3256 23.954C34.6127 24.2627 34.7909 24.6514 34.7909 25.0848V28.5758C34.7909 29.1581 35.2728 29.5848 35.8 29.5848H39.2909Z" fill="#573353" stroke="#FC9D45"/>
</svg>
