<svg width="38" height="38" viewBox="0 0 38 38" fill="none" xmlns="http://www.w3.org/2000/svg">
<circle opacity="0.2" cx="19" cy="19" r="19" fill="#973456"/>
<path d="M26.6566 10.3796C21.395 9.12799 15.0564 11.0795 12.8103 14.6463C11.6395 16.5053 11.7406 18.5935 13.0934 20.5288C13.2436 20.7899 13.4227 21.0316 13.6274 21.2489C14.5585 18.9598 16.1979 17.0618 18.2842 15.8574C18.4945 15.7285 18.7654 15.8019 18.889 16.0213C19.0126 16.2406 18.9424 16.523 18.7319 16.652C16.6455 17.9307 15.2554 19.4423 14.398 21.7292C13.7977 23.25 13.3953 24.8476 13.2015 26.4795C13.1732 26.7309 13.3421 26.9601 13.5824 26.9962C13.6113 27 13.6406 27.0011 13.6698 26.9989C13.8798 26.9838 14.0503 26.8165 14.0775 26.599C14.2375 25.1407 14.5833 23.7112 15.1058 22.3485C15.6721 22.6478 16.2753 22.8641 16.8982 22.9911C17.0865 23.0291 17.2739 23.0591 17.4603 23.0814C19.1411 23.3075 20.8377 22.8121 22.1618 21.7092C23.5547 20.1547 23.6882 18.7549 23.8175 17.4013C23.9833 15.6585 24.1555 13.8562 26.8633 11.1623C26.9809 11.0452 27.0273 10.8701 26.9841 10.7066C26.9409 10.5431 26.8152 10.4174 26.6566 10.3796Z" fill="#973456"/>
</svg>
