<svg width="38" height="38" viewBox="0 0 38 38" fill="none" xmlns="http://www.w3.org/2000/svg">
<path opacity="0.1" d="M0 12C0 5.37258 5.37258 0 12 0H26C32.6274 0 38 5.37258 38 12V26C38 32.6274 32.6274 38 26 38H12C5.37258 38 0 32.6274 0 26V12Z" fill="#FDA758"/>
<path d="M27.3091 12H10.6909C10.4687 11.9995 10.2486 12.0413 10.0433 12.123C9.8379 12.2046 9.6513 12.3244 9.49419 12.4757C9.33708 12.6269 9.21255 12.8065 9.12774 13.0041C9.04293 13.2018 8.99952 13.4136 9 13.6275V24.3725C8.99952 24.5864 9.04293 24.7982 9.12774 24.9959C9.21255 25.1935 9.33708 25.3731 9.49419 25.5243C9.6513 25.6756 9.8379 25.7954 10.0433 25.877C10.2486 25.9587 10.4687 26.0005 10.6909 26H27.3091C27.5313 26.0005 27.7514 25.9587 27.9567 25.877C28.1621 25.7954 28.3487 25.6756 28.5058 25.5243C28.6629 25.3731 28.7875 25.1935 28.8723 24.9959C28.9571 24.7982 29.0005 24.5864 29 24.3725V13.6275C29.0005 13.4136 28.9571 13.2018 28.8723 13.0041C28.7875 12.8065 28.6629 12.6269 28.5058 12.4757C28.3487 12.3244 28.1621 12.2046 27.9567 12.123C27.7514 12.0413 27.5313 11.9995 27.3091 12ZM25.3636 23.375H12.6364C12.3953 23.375 12.164 23.2828 11.9935 23.1187C11.8231 22.9546 11.7273 22.7321 11.7273 22.5C11.7273 22.2679 11.8231 22.0454 11.9935 21.8813C12.164 21.7172 12.3953 21.625 12.6364 21.625H25.3636C25.6047 21.625 25.836 21.7172 26.0065 21.8813C26.1769 22.0454 26.2727 22.2679 26.2727 22.5C26.2727 22.7321 26.1769 22.9546 26.0065 23.1187C25.836 23.2828 25.6047 23.375 25.3636 23.375ZM27.1818 16.6463C27.1816 16.8063 27.1154 16.9597 26.9978 17.0729C26.8802 17.1861 26.7208 17.2498 26.5545 17.25H24.1727C24.0064 17.2498 23.847 17.1861 23.7294 17.0729C23.6119 16.9597 23.5457 16.8063 23.5455 16.6463V14.3538C23.5457 14.1937 23.6119 14.0403 23.7294 13.9271C23.847 13.8139 24.0064 13.7502 24.1727 13.75H26.5545C26.7208 13.7502 26.8802 13.8139 26.9978 13.9271C27.1154 14.0403 27.1816 14.1937 27.1818 14.3538V16.6463Z" fill="#FDA758"/>
</svg>
