<svg width="40" height="40" viewBox="0 0 40 40" fill="none" xmlns="http://www.w3.org/2000/svg">
<rect opacity="0.1" width="40" height="40" rx="20" fill="#FDA758"/>
<path d="M20.0001 11C18.2201 11 16.48 11.5278 14.9999 12.5168C13.5199 13.5057 12.3663 14.9114 11.6851 16.5559C11.0039 18.2005 10.8257 20.0101 11.1729 21.756C11.5202 23.5018 12.3774 25.1055 13.6361 26.3642C14.8948 27.6229 16.4984 28.48 18.2443 28.8273C19.9901 29.1746 21.7998 28.9963 23.4443 28.3151C25.0889 27.634 26.4945 26.4804 27.4834 25.0003C28.4724 23.5203 29.0002 21.7802 29.0002 20.0001C28.9975 17.614 28.0484 15.3264 26.3611 13.6391C24.6739 11.9518 22.3863 11.0027 20.0001 11ZM23.1976 22.6052L19.5975 20.8052C19.4481 20.7304 19.3223 20.6155 19.2345 20.4733C19.1466 20.3311 19.1001 20.1673 19.1001 20.0001V15.5001C19.1001 15.2614 19.1949 15.0324 19.3637 14.8637C19.5325 14.6949 19.7614 14.6 20.0001 14.6C20.2388 14.6 20.4677 14.6949 20.6365 14.8637C20.8053 15.0324 20.9001 15.2614 20.9001 15.5001V19.4437L24.0027 20.995C24.2163 21.1018 24.3786 21.289 24.4541 21.5155C24.5296 21.742 24.512 21.9891 24.4053 22.2027C24.2985 22.4162 24.1113 22.5786 23.8848 22.6541C23.6583 22.7295 23.4111 22.712 23.1976 22.6052Z" fill="#FDA758"/>
</svg>
