<svg width="10" height="10" viewBox="0 0 10 10" fill="none" xmlns="http://www.w3.org/2000/svg">
<g clip-path="url(#clip0_490_356)">
<path d="M6.36347 0.681789C5.09075 0.136334 3.71196 0.454516 3.18165 0.681789L0.908958 2.49998L0.454381 4.31816C0.302866 6.06058 0.1362 9.49998 0.681654 9.31816C1.36347 9.09089 2.27256 9.09089 2.95438 9.31816C3.6362 9.54543 5.22711 9.54543 6.36347 9.54543C7.49984 9.54543 8.6362 8.1818 9.31802 6.81816C9.99984 5.45452 9.54529 4.54543 9.31802 3.40907C9.09074 2.2727 7.95438 1.36361 6.36347 0.681789Z" fill="#EBDCCF"/>
<path d="M0.390504 10.0003C0.340178 10.0003 0.289441 9.99057 0.241106 9.97055C0.0951654 9.91009 0 9.76767 0 9.6097L0.00021482 5.04801C-0.0306607 0.581642 5.40457 -1.6892 8.55334 1.47633C11.6687 4.63731 9.41948 10.0042 4.97627 10.0003C4.18923 10.0003 3.43789 9.82379 2.74314 9.47563C2.07928 9.14293 1.27556 9.2771 0.743161 9.8095L0.666763 9.8859C0.592045 9.96061 0.492134 10.0003 0.390504 10.0003ZM1.97765 8.51318C2.35695 8.51318 2.73853 8.59953 3.09314 8.77725C3.67932 9.07106 4.31468 9.21976 4.98069 9.21913C8.7143 9.22462 10.6276 4.66387 7.99827 2.02598C5.33119 -0.643068 0.762026 1.26866 0.78136 5.04236C0.78136 5.04361 0.781379 5.04488 0.781379 5.04613L0.781204 8.81658C1.15132 8.61644 1.56307 8.51318 1.97765 8.51318Z" fill="#EBDCCF"/>
</g>
<defs>
<clipPath id="clip0_490_356">
<rect width="10" height="10" fill="white"/>
</clipPath>
</defs>
</svg>
