<svg width="38" height="38" viewBox="0 0 38 38" fill="none" xmlns="http://www.w3.org/2000/svg">
<circle opacity="0.2" cx="19" cy="19" r="19" fill="#29319F"/>
<path d="M20.2763 27.2724H17.7055C17.5164 27.2741 17.3288 27.2358 17.1539 27.1596C16.9789 27.0833 16.8201 26.9707 16.6866 26.8284C16.5532 26.6861 16.4479 26.5169 16.3769 26.3307C16.3059 26.1446 16.2706 25.9453 16.2731 25.7444V12.2454C16.2844 11.6514 16.5124 11.0852 16.9092 10.6663C17.306 10.2474 17.8404 10.0085 18.3998 10H19.607C20.1675 10.0103 20.7021 10.2518 21.0979 10.6733C21.4936 11.0949 21.7194 11.6635 21.7275 12.2587V25.7577C21.7284 25.9591 21.6912 26.1587 21.6183 26.3446C21.5454 26.5306 21.4381 26.6991 21.3028 26.8403C21.1676 26.9815 21.0071 27.0924 20.8307 27.1666C20.6544 27.2409 20.4659 27.2768 20.2763 27.2724Z" fill="#29319F"/>
<path d="M12.9776 27.2727H10.49C10.2939 27.2746 10.0993 27.2339 9.91779 27.1531C9.73624 27.0723 9.5713 26.9529 9.4326 26.8019C9.2939 26.6509 9.18422 26.4714 9.10995 26.2738C9.03569 26.0761 8.99833 25.8644 9.00006 25.6509V17.8451C9.00005 17.5294 9.05749 17.2168 9.16906 16.9254C9.28064 16.634 9.44414 16.3695 9.65012 16.1473C9.8561 15.925 10.1005 15.7494 10.3692 15.6305C10.6379 15.5117 10.9255 15.4519 11.2155 15.4547H12.265C12.8463 15.4565 13.4032 15.7092 13.8136 16.1573C14.2241 16.6054 14.4545 17.2123 14.4545 17.8451V25.665C14.4545 26.0914 14.2989 26.5003 14.0219 26.8018C13.745 27.1033 13.3693 27.2727 12.9776 27.2727Z" fill="#29319F"/>
<path d="M27.4525 27.2724H25.0673C24.6652 27.2643 24.2819 27.104 23.998 26.825C23.7142 26.5461 23.5519 26.1702 23.5454 25.7766V22.178C23.5454 21.8914 23.6032 21.6077 23.7154 21.3431C23.8276 21.0784 23.9921 20.838 24.1994 20.6357C24.4068 20.4334 24.6528 20.2731 24.9236 20.164C25.1943 20.0549 25.4843 19.9992 25.7771 20H26.7683C27.061 19.9992 27.3511 20.0549 27.6218 20.164C27.8925 20.2731 28.1386 20.4334 28.3459 20.6357C28.5532 20.838 28.7177 21.0784 28.83 21.3431C28.9422 21.6077 29 21.8914 29 22.178V25.7891C29 25.9866 28.9598 26.182 28.8816 26.3641C28.8035 26.5461 28.689 26.711 28.5448 26.8492C28.4007 26.9873 28.2298 27.0959 28.0423 27.1686C27.8547 27.2413 27.6542 27.2766 27.4525 27.2724Z" fill="#29319F"/>
</svg>
