<svg width="38" height="38" viewBox="0 0 38 38" fill="none" xmlns="http://www.w3.org/2000/svg">
<path opacity="0.1" d="M0 12C0 5.37258 5.37258 0 12 0H26C32.6274 0 38 5.37258 38 12V26C38 32.6274 32.6274 38 26 38H12C5.37258 38 0 32.6274 0 26V12Z" fill="#FDA758"/>
<path d="M23.9091 10H14.0909C13.0063 10.0013 11.9665 10.4327 11.1996 11.1996C10.4327 11.9665 10.0013 13.0063 10 14.0909V20.6363C10.0012 21.579 10.3273 22.4925 10.9235 23.2228C11.5196 23.953 12.3493 24.4555 13.2727 24.6454V27.1817C13.2727 27.3298 13.3129 27.4752 13.389 27.6023C13.4651 27.7293 13.5743 27.8333 13.7049 27.9032C13.8355 27.9731 13.9827 28.0062 14.1306 27.999C14.2786 27.9918 14.4218 27.9446 14.545 27.8624L19.2455 24.7272H23.9091C24.9937 24.7259 26.0335 24.2945 26.8004 23.5275C27.5673 22.7606 27.9987 21.7209 28 20.6363V14.0909C27.9987 13.0063 27.5673 11.9665 26.8004 11.1996C26.0335 10.4327 24.9937 10.0013 23.9091 10V10ZM22.2727 19.8181H15.7273C15.5103 19.8181 15.3022 19.7319 15.1487 19.5785C14.9953 19.425 14.9091 19.2169 14.9091 18.9999C14.9091 18.7829 14.9953 18.5748 15.1487 18.4214C15.3022 18.268 15.5103 18.1818 15.7273 18.1818H22.2727C22.4897 18.1818 22.6978 18.268 22.8513 18.4214C23.0047 18.5748 23.0909 18.7829 23.0909 18.9999C23.0909 19.2169 23.0047 19.425 22.8513 19.5785C22.6978 19.7319 22.4897 19.8181 22.2727 19.8181ZM23.9091 16.5454H14.0909C13.8739 16.5454 13.6658 16.4592 13.5124 16.3058C13.3589 16.1523 13.2727 15.9442 13.2727 15.7272C13.2727 15.5102 13.3589 15.3021 13.5124 15.1487C13.6658 14.9953 13.8739 14.9091 14.0909 14.9091H23.9091C24.1261 14.9091 24.3342 14.9953 24.4876 15.1487C24.6411 15.3021 24.7273 15.5102 24.7273 15.7272C24.7273 15.9442 24.6411 16.1523 24.4876 16.3058C24.3342 16.4592 24.1261 16.5454 23.9091 16.5454Z" fill="#FDA758"/>
</svg>
