<svg width="40" height="40" viewBox="0 0 40 40" fill="none" xmlns="http://www.w3.org/2000/svg">
<rect opacity="0.1" width="40" height="40" rx="20" fill="#29319F"/>
<path d="M27.0996 11.7207C26.9587 11.6385 23.6196 9.73979 19.8754 11.7037C17.5707 12.9137 15.4634 12.2725 14.6111 11.9116V10.8055C14.6111 10.3609 14.251 10 13.8055 10C13.3601 10 13 10.3609 13 10.8055V12.4167V20.4875V28.5278C13 28.9732 13.3601 29.3333 13.8055 29.3333C14.251 29.3333 14.6111 28.9732 14.6111 28.5278V21.6926C15.2467 21.8972 16.0901 22.0873 17.0729 22.0865C18.1378 22.0865 19.359 21.865 20.6246 21.2012C23.5544 19.661 26.1749 21.1174 26.2917 21.1851C26.5389 21.3277 26.8459 21.3293 27.0956 21.1859C27.3461 21.0417 27.5 20.7759 27.5 20.4875V12.4167C27.5 12.1307 27.3477 11.8649 27.0996 11.7207Z" fill="#29319F"/>
</svg>
