<svg width="38" height="38" viewBox="0 0 38 38" fill="none" xmlns="http://www.w3.org/2000/svg">
<circle opacity="0.2" cx="19" cy="19" r="19" fill="#F65B4E"/>
<path d="M15.1573 21.3754H16.8628L14.7164 28.9171C14.679 29.043 14.6715 29.176 14.6947 29.3054C14.7178 29.4348 14.7709 29.5569 14.8496 29.6621C14.9284 29.7674 15.0306 29.8527 15.1482 29.9114C15.2658 29.97 15.3955 30.0004 15.5269 30C15.6393 30.0005 15.7506 29.9784 15.8542 29.9349C15.9578 29.8915 16.0516 29.8276 16.13 29.7471L24.2099 21.6413C24.3385 21.5134 24.4262 21.3501 24.4618 21.1723C24.4974 20.9944 24.4793 20.8099 24.4098 20.6424C24.3403 20.4748 24.2225 20.3318 24.0714 20.2313C23.9203 20.1309 23.7428 20.0777 23.5614 20.0785H21.9727L23.9181 13.2177C23.9911 12.9589 24.0032 12.6866 23.9535 12.4222C23.9039 12.1579 23.7937 11.9086 23.6317 11.6938C23.4697 11.4791 23.2603 11.3047 23.0197 11.1844C22.7792 11.064 22.514 11.0009 22.245 11H18.03C17.652 11.0019 17.2848 11.1261 16.9832 11.3541C16.6817 11.582 16.462 11.9014 16.357 12.2645L14.1328 20.0461C14.0887 20.2023 14.0814 20.3667 14.1115 20.5262C14.1416 20.6858 14.2083 20.8362 14.3063 20.9656C14.4043 21.095 14.531 21.2 14.6764 21.2722C14.8218 21.3445 14.982 21.382 15.1444 21.3819L15.1573 21.3754Z" fill="#F65B4E"/>
</svg>
