<svg width="12" height="10" viewBox="0 0 12 10" fill="none" xmlns="http://www.w3.org/2000/svg">
<path d="M5.99999 10C6.04977 9.94265 6.09787 9.8888 6.14429 9.83775C6.83258 9.10295 7.65554 8.55068 8.45133 8.01637L8.48019 7.99725C9.30003 7.45128 10.1473 6.88736 10.8144 6.13973C11.988 4.82469 12.3242 3.09166 11.6706 1.72417C11.2276 0.776762 10.2796 0.106537 9.25361 0.0130545C9.16295 0.00489526 9.07132 0.000698948 8.97921 0.00069894C8.05644 0.000698859 7.04589 0.42941 6.34149 1.11922L5.99975 1.45421L5.65777 1.11898C4.95337 0.428711 3.94403 -7.04276e-07 3.02342 -7.84757e-07C2.92987 -7.92936e-07 2.83728 0.00442837 2.74493 0.0128207C1.71899 0.106069 0.770971 0.778626 0.328946 1.7265C-0.324231 3.09539 0.0126987 4.82609 1.18534 6.1395C1.85294 6.88759 2.70068 7.45174 3.52052 7.99748L3.54938 8.01683C4.34469 8.55091 5.16789 9.10365 5.84848 9.82982C5.88768 9.87132 5.92544 9.91445 5.96512 9.96014L5.99999 10Z" fill="#FDA758"/>
</svg>
