<svg width="32" height="32" viewBox="0 0 32 32" fill="none" xmlns="http://www.w3.org/2000/svg">
<rect opacity="0.1" width="32" height="32" rx="16" fill="#573353"/>
<path d="M11 10.6806C11 10.2348 11.1771 9.80739 11.4922 9.49222C11.8074 9.17706 12.2348 9 12.6806 9H19.4028C19.8485 9 20.2759 9.17706 20.5911 9.49222C20.9063 9.80739 21.0833 10.2348 21.0833 10.6806V22.0243C21.0833 22.1003 21.0626 22.1749 21.0236 22.2401C20.9845 22.3052 20.9285 22.3586 20.8615 22.3945C20.7945 22.4304 20.719 22.4474 20.6431 22.4437C20.5672 22.4401 20.4937 22.416 20.4304 22.3739L16.0417 20.0085L11.6529 22.3739C11.5896 22.416 11.5161 22.4401 11.4402 22.4437C11.3643 22.4474 11.2888 22.4304 11.2218 22.3945C11.1548 22.3586 11.0988 22.3052 11.0598 22.2401C11.0207 22.1749 11 22.1003 11 22.0243V10.6806ZM12.6806 9.84028C12.4577 9.84028 12.244 9.92881 12.0864 10.0864C11.9288 10.244 11.8403 10.4577 11.8403 10.6806V21.2395L15.8089 19.1539C15.8779 19.108 15.9588 19.0835 16.0417 19.0835C16.1245 19.0835 16.2055 19.108 16.2744 19.1539L20.2431 21.2395V10.6806C20.2431 10.4577 20.1545 10.244 19.9969 10.0864C19.8394 9.92881 19.6256 9.84028 19.4028 9.84028H12.6806Z" fill="#573353"/>
</svg>
