<svg width="60" height="60" viewBox="0 0 60 60" fill="none" xmlns="http://www.w3.org/2000/svg">
<rect opacity="0.3" x="-1" y="1" width="58" height="58" rx="7" transform="matrix(-1 0 0 1 58 0)" stroke="#573353" stroke-width="2"/>
<path opacity="0.3" d="M42 29.9977C42.0033 28.3441 41.3894 26.7514 40.2832 25.5439C39.177 24.3365 37.6617 23.6051 36.046 23.4988C35.8554 23.2588 35.6488 23.0323 35.4279 22.8211C34.6101 22.0364 33.6322 21.4466 32.5645 21.0943C32.7867 20.695 32.9056 20.2445 32.9099 19.7852C32.9099 19.0465 32.6226 18.3381 32.1112 17.8158C31.5998 17.2934 30.9062 17 30.1829 17C29.4597 17 28.766 17.2934 28.2546 17.8158C27.7432 18.3381 27.4559 19.0465 27.4559 19.7852C27.4571 20.2508 27.5761 20.7081 27.8013 21.1128C26.3419 21.6015 25.0608 22.5282 24.1251 23.7721C23.1894 25.0159 22.6427 26.5191 22.5564 28.0852L22.0019 38.2976C21.9939 38.4247 22.0115 38.552 22.0537 38.6718C22.096 38.7916 22.1618 38.9012 22.2473 38.9939C22.3329 39.0856 22.4359 39.1584 22.55 39.2079C22.6641 39.2574 22.7869 39.2825 22.9109 39.2817H25.7288C25.9374 40.3311 26.4948 41.2745 27.3066 41.9522C28.1184 42.6298 29.1345 43 30.1829 43C31.2313 43 32.2475 42.6298 33.0593 41.9522C33.871 41.2745 34.4284 40.3311 34.637 39.2817H37.455C37.5789 39.2825 37.7018 39.2574 37.8159 39.2079C37.93 39.1584 38.033 39.0856 38.1185 38.9939C38.204 38.9012 38.2699 38.7916 38.3121 38.6718C38.3543 38.552 38.372 38.4247 38.364 38.2976L38.2367 35.9209C39.3562 35.4091 40.307 34.5777 40.9747 33.5268C41.6423 32.476 41.9984 31.2504 42 29.9977ZM30.1829 18.8568C30.3627 18.8568 30.5385 18.9113 30.6879 19.0133C30.8374 19.1153 30.9539 19.2603 31.0227 19.4299C31.0915 19.5996 31.1095 19.7862 31.0745 19.9663C31.0394 20.1464 30.9528 20.3119 30.8257 20.4417C30.6986 20.5715 30.5366 20.66 30.3603 20.6958C30.1839 20.7316 30.0012 20.7132 29.8351 20.643C29.669 20.5727 29.527 20.4537 29.4271 20.301C29.3272 20.1483 29.2739 19.9688 29.2739 19.7852C29.2739 19.539 29.3697 19.3028 29.5402 19.1287C29.7106 18.9546 29.9418 18.8568 30.1829 18.8568ZM23.8744 37.4249L24.3744 28.1873C24.4345 27.1082 24.7813 26.0662 25.3774 25.1732C25.9736 24.2802 26.7966 23.5699 27.7581 23.1184C28.7196 22.667 29.7834 22.4916 30.8351 22.6109C31.8869 22.7303 32.887 23.1399 33.728 23.7959C32.2761 24.2604 31.0352 25.2408 30.2303 26.5595C29.4253 27.8782 29.1097 29.4478 29.3406 30.9838C29.5714 32.5197 30.3335 33.9203 31.4886 34.9317C32.6438 35.9431 34.1155 36.4982 35.637 36.4965C35.9044 36.4921 36.1714 36.4735 36.4369 36.4408L36.4914 37.4249H23.8744ZM37.564 30.6568C37.7333 30.8308 37.8284 31.0661 37.8284 31.3114C37.8284 31.5566 37.7333 31.7919 37.564 31.9659C37.3937 32.1388 37.1633 32.2359 36.9232 32.2359C36.6831 32.2359 36.4527 32.1388 36.2823 31.9659L35.637 31.3067L34.9916 31.9659C34.8212 32.1388 34.5909 32.2359 34.3507 32.2359C34.1106 32.2359 33.8802 32.1388 33.7099 31.9659C33.5406 31.7919 33.4455 31.5566 33.4455 31.3114C33.4455 31.0661 33.5406 30.8308 33.7099 30.6568L34.3553 29.9977L33.7099 29.3385C33.5609 29.1609 33.4831 28.9324 33.492 28.6988C33.5008 28.4651 33.5956 28.2435 33.7575 28.0781C33.9194 27.9128 34.1364 27.8159 34.3652 27.8069C34.594 27.7979 34.8177 27.8774 34.9916 28.0295L35.637 28.6886L36.2823 28.0295C36.4562 27.8774 36.6799 27.7979 36.9087 27.8069C37.1375 27.8159 37.3545 27.9128 37.5164 28.0781C37.6783 28.2435 37.7731 28.4651 37.7819 28.6988C37.7908 28.9324 37.713 29.1609 37.564 29.3385L36.9187 29.9977L37.564 30.6568Z" fill="#573353"/>
</svg>
