<svg width="60" height="60" viewBox="0 0 60 60" fill="none" xmlns="http://www.w3.org/2000/svg">
<rect width="60" height="60" rx="8" fill="#FDA758"/>
<path d="M29.97 39.5C31.07 39.5 31.97 38.6 31.97 37.5H27.97C27.97 38.6 28.87 39.5 29.97 39.5ZM35.97 33.5V28.5C35.97 25.43 34.34 22.86 31.47 22.18V21.5C31.47 20.67 30.8 20 29.97 20C29.14 20 28.47 20.67 28.47 21.5V22.18C25.61 22.86 23.97 25.42 23.97 28.5V33.5L21.97 35.5V36.5H37.97V35.5L35.97 33.5ZM33.97 34.5H25.97V28.5C25.97 26.02 27.48 24 29.97 24C32.46 24 33.97 26.02 33.97 28.5V34.5ZM25.55 21.58L24.12 20.15C21.72 21.98 20.14 24.8 20 28H22C22.15 25.35 23.51 23.03 25.55 21.58V21.58ZM37.94 28H39.94C39.79 24.8 38.21 21.98 35.82 20.15L34.4 21.58C36.42 23.03 37.79 25.35 37.94 28Z" fill="white"/>
</svg>
