<svg width="38" height="38" viewBox="0 0 38 38" fill="none" xmlns="http://www.w3.org/2000/svg">
<path opacity="0.1" d="M0 12C0 5.37258 5.37258 0 12 0H26C32.6274 0 38 5.37258 38 12V26C38 32.6274 32.6274 38 26 38H12C5.37258 38 0 32.6274 0 26V12Z" fill="#FDA758"/>
<path d="M19 10C14.0375 10 10 14.0375 10 19C10 23.9625 14.0375 28 19 28C23.9625 28 28 23.9625 28 19C28 14.0375 23.9625 10 19 10ZM19 24.5385C18.0957 24.5385 17.3765 24.1551 17.28 23.3451C17.2775 23.3209 17.2801 23.2964 17.2876 23.2733C17.2952 23.2501 17.3075 23.2288 17.3238 23.2108C17.3402 23.1927 17.3601 23.1783 17.3824 23.1685C17.4047 23.1587 17.4288 23.1537 17.4531 23.1538H20.5447C20.5693 23.1537 20.5936 23.1587 20.6161 23.1687C20.6386 23.1787 20.6587 23.1933 20.6751 23.2116C20.6914 23.23 20.7037 23.2516 20.7111 23.2751C20.7185 23.2985 20.7207 23.3233 20.7178 23.3477C20.6075 24.1425 19.8948 24.5385 19 24.5385ZM23.2404 22.4615H14.7596C14.2473 22.4615 13.9808 21.8125 14.2754 21.4663C14.982 20.6295 15.4813 20.2777 15.4813 17.9702C15.4813 15.8556 16.5951 15.1053 17.515 14.7393C17.5783 14.7129 17.6354 14.6735 17.6826 14.6238C17.7297 14.574 17.766 14.5149 17.7889 14.4502C17.9486 13.9202 18.4003 13.4615 19 13.4615C19.5997 13.4615 20.0506 13.9202 20.2115 14.4507C20.2346 14.5153 20.2709 14.5744 20.3182 14.6242C20.3654 14.6739 20.4225 14.7133 20.4859 14.7397C21.4036 15.1049 22.5195 15.8565 22.5195 17.9706C22.5195 20.2782 23.0184 20.63 23.725 21.4668C24.0166 21.8125 23.7497 22.4615 23.2404 22.4615V22.4615Z" fill="#FC9D45"/>
</svg>
