<svg width="38" height="38" viewBox="0 0 38 38" fill="none" xmlns="http://www.w3.org/2000/svg">
<path opacity="0.1" d="M0 12C0 5.37258 5.37258 0 12 0H26C32.6274 0 38 5.37258 38 12V26C38 32.6274 32.6274 38 26 38H12C5.37258 38 0 32.6274 0 26V12Z" fill="#FDA758"/>
<path d="M18.9998 10C14.0411 10 10 14.0411 10 18.9998C10 20.3586 10.3151 21.7086 10.9088 22.9329L10.414 25.1468C10.261 25.8394 10.3872 26.488 10.7651 26.9556C11.2239 27.5409 12.0069 27.7747 12.8529 27.5857L15.0668 27.0997C16.2911 27.6851 17.6411 27.9997 18.9998 27.9997C23.9586 27.9997 27.9997 23.9586 27.9997 18.9998C27.9997 14.0411 23.9586 10 18.9998 10Z" fill="#FDA758"/>
<path d="M20.3244 23C21.2546 23 22.0391 22.6011 22.6074 21.8484L23 21.3265L20.5091 18.7623L19.9558 19.3074C19.9017 19.3689 19.8252 19.3996 19.7328 19.3996C19.6172 19.3996 19.502 19.3456 19.4175 19.2609L18.7407 18.5854C18.6563 18.5089 18.6101 18.4092 18.6026 18.3095C18.6026 18.2247 18.6255 18.1558 18.6946 18.0943L19.2328 17.5492L16.6807 15L16.1503 15.3996C15.0817 16.2056 14.7356 17.472 15.2048 18.8853C15.8579 20.8272 18.118 23 20.3169 23H20.3244Z" fill="white"/>
</svg>
