<svg width="38" height="38" viewBox="0 0 38 38" fill="none" xmlns="http://www.w3.org/2000/svg">
<path opacity="0.1" d="M0 12C0 5.37258 5.37258 0 12 0H26C32.6274 0 38 5.37258 38 12V26C38 32.6274 32.6274 38 26 38H12C5.37258 38 0 32.6274 0 26V12Z" fill="#FDA758"/>
<g clip-path="url(#clip0_465_1026)">
<path d="M14.3104 10.305C12.8432 9.44816 11 10.5058 11 12.205V25.3954C11 27.0946 12.8432 28.1522 14.3104 27.2954L26.068 20.4234C27.3096 19.6978 27.3096 17.9034 26.068 17.177L14.3104 10.305Z" fill="#FC9D45"/>
</g>
<defs>
<clipPath id="clip0_465_1026">
<rect width="16" height="17.6" fill="white" transform="translate(11 10)"/>
</clipPath>
</defs>
</svg>
