<svg width="38" height="38" viewBox="0 0 38 38" fill="none" xmlns="http://www.w3.org/2000/svg">
<path opacity="0.1" d="M0 12C0 5.37258 5.37258 0 12 0H26C32.6274 0 38 5.37258 38 12V26C38 32.6274 32.6274 38 26 38H12C5.37258 38 0 32.6274 0 26V12Z" fill="#FDA758"/>
<path d="M26.7179 13.1983L19.8204 10.1717C19.5616 10.0585 19.2823 10 18.9999 10C18.7175 10 18.4381 10.0585 18.1794 10.1717L11.2832 13.1983C10.8606 13.3887 10.5097 13.7092 10.2817 14.1129C10.0536 14.5167 9.96036 14.9828 10.0154 15.4433C10.1864 17.0861 10.607 18.6933 11.2628 20.2091C12.6567 23.3498 14.9995 25.9744 17.9618 27.7136C18.2759 27.9013 18.6349 28.0002 19.0007 28C19.3666 27.9998 19.7255 27.9003 20.0393 27.7122C23.0011 25.9734 25.3435 23.3494 26.737 20.2091C27.3928 18.6933 27.8135 17.0862 27.9846 15.4433C28.0396 14.9829 27.9464 14.517 27.7186 14.1133C27.4908 13.7095 27.1402 13.389 26.7179 13.1983V13.1983Z" fill="#FDA758"/>
<path d="M21.8419 17.5789L18.0524 20.8946L16.6313 19.1291" stroke="white" stroke-width="1.7" stroke-linecap="round" stroke-linejoin="round"/>
</svg>
