<svg width="44" height="44" viewBox="0 0 44 44" fill="none" xmlns="http://www.w3.org/2000/svg">
<path d="M20.6883 11C15.3463 11 11 15.3463 11 20.6883C11 26.0306 15.3463 30.3767 20.6883 30.3767C26.0306 30.3767 30.3767 26.0306 30.3767 20.6883C30.3767 15.3463 26.0306 11 20.6883 11ZM20.6883 28.5881C16.3325 28.5881 12.7886 25.0442 12.7886 20.6884C12.7886 16.3325 16.3325 12.7886 20.6883 12.7886C25.0442 12.7886 28.5881 16.3325 28.5881 20.6883C28.5881 25.0442 25.0442 28.5881 20.6883 28.5881Z" fill="#573353"/>
<path d="M32.738 31.4734L27.6106 26.346C27.2612 25.9966 26.6954 25.9966 26.346 26.346C25.9966 26.6951 25.9966 27.2615 26.346 27.6106L31.4734 32.738C31.6481 32.9126 31.8767 33 32.1057 33C32.3343 33 32.5633 32.9126 32.738 32.738C33.0874 32.3889 33.0874 31.8225 32.738 31.4734Z" fill="#573353"/>
</svg>
