<svg width="13" height="15" viewBox="0 0 13 15" fill="none" xmlns="http://www.w3.org/2000/svg">
<path d="M12.3541 3.7905C12.3466 3.39304 12.3394 3.01757 12.3394 2.65432C12.3394 2.36975 12.1087 2.13904 11.8241 2.13904C9.62036 2.13904 7.94252 1.50571 6.54396 0.145904C6.34389 -0.0486689 6.02551 -0.0486002 5.82551 0.145904C4.42709 1.50571 2.74952 2.13904 0.545942 2.13904C0.261366 2.13904 0.0306545 2.36975 0.0306545 2.65432C0.0306545 3.01764 0.0235092 3.39325 0.0158829 3.79077C-0.0547458 7.48958 -0.151482 12.5553 6.01596 14.693C6.07065 14.712 6.12767 14.7215 6.1847 14.7215C6.24172 14.7215 6.29882 14.712 6.35344 14.693C12.5214 12.5552 12.4248 7.48937 12.3541 3.7905ZM6.18477 13.6594C0.895376 11.7379 0.975348 7.52867 1.04632 3.81042C1.05058 3.58727 1.0547 3.37099 1.05759 3.15896C3.12149 3.07184 4.77192 2.44642 6.18477 1.21564C7.59775 2.44642 9.24846 3.07191 11.3125 3.15896C11.3154 3.37092 11.3195 3.58706 11.3238 3.81008C11.3947 7.52846 11.4746 11.7378 6.18477 13.6594Z" fill="#573353"/>
<path d="M7.9592 5.57082L5.47215 8.05773L4.41086 6.99644C4.20963 6.79528 3.88335 6.79528 3.68218 6.99644C3.48094 7.19775 3.48094 7.52396 3.68218 7.7252L5.10781 9.15083C5.20839 9.25141 5.3403 9.3017 5.47215 9.3017C5.60399 9.3017 5.73591 9.25141 5.83649 9.15083L8.68782 6.29957C8.88912 6.09833 8.88912 5.77205 8.68789 5.57088C8.48672 5.36965 8.16044 5.36958 7.9592 5.57082Z" fill="#573353"/>
</svg>
