<svg width="32" height="32" viewBox="0 0 32 32" fill="none" xmlns="http://www.w3.org/2000/svg">
<rect opacity="0.1" width="32" height="32" rx="16" fill="#573353"/>
<path d="M20.6247 14.0405L18.1347 11.3363C17.9293 11.1131 17.7209 11 17.5153 11C17.2331 11 16.9036 11.2331 16.9036 11.89V12.8107C15.0946 12.8963 13.4051 13.702 12.1166 15.1013C10.7518 16.5834 10.0001 18.554 10 20.65C10 20.8006 10.0887 20.9343 10.2202 20.982C10.2538 20.9941 10.2882 21 10.3222 21C10.4216 21 10.5179 20.9499 10.5799 20.8602C12.1014 18.6608 14.3921 17.3609 16.9036 17.2583V18.1648C16.9036 18.8217 17.2331 19.0548 17.5153 19.0548H17.5154C17.7209 19.0548 17.9293 18.9417 18.1347 18.7186L20.6247 16.0143C20.8667 15.7516 21 15.4011 21 15.0274C21 14.6538 20.8667 14.3033 20.6247 14.0405Z" fill="#573353"/>
</svg>
