<svg width="20" height="20" viewBox="0 0 20 20" fill="none" xmlns="http://www.w3.org/2000/svg">
<path fill-rule="evenodd" clip-rule="evenodd" d="M10.0002 0.833344C4.93766 0.833344 0.833496 4.93751 0.833496 10C0.833496 15.0625 4.93766 19.1667 10.0002 19.1667C15.0627 19.1667 19.1668 15.0625 19.1668 10C19.1668 4.93751 15.0627 0.833344 10.0002 0.833344ZM10.8335 13.3333C10.8335 13.5544 10.7457 13.7663 10.5894 13.9226C10.4331 14.0789 10.2212 14.1667 10.0002 14.1667C9.77915 14.1667 9.56719 14.0789 9.41091 13.9226C9.25463 13.7663 9.16683 13.5544 9.16683 13.3333V10.8333H6.66683C6.44582 10.8333 6.23385 10.7455 6.07757 10.5893C5.92129 10.433 5.8335 10.221 5.8335 10C5.8335 9.77899 5.92129 9.56703 6.07757 9.41075C6.23385 9.25447 6.44582 9.16668 6.66683 9.16668H9.16683V6.66668C9.16683 6.44566 9.25463 6.2337 9.41091 6.07742C9.56719 5.92114 9.77915 5.83334 10.0002 5.83334C10.2212 5.83334 10.4331 5.92114 10.5894 6.07742C10.7457 6.2337 10.8335 6.44566 10.8335 6.66668V9.16668H13.3335C13.5545 9.16668 13.7665 9.25447 13.9228 9.41075C14.079 9.56703 14.1668 9.77899 14.1668 10C14.1668 10.221 14.079 10.433 13.9228 10.5893C13.7665 10.7455 13.5545 10.8333 13.3335 10.8333H10.8335V13.3333Z" fill="#FC9D45"/>
</svg>
