<svg width="38" height="38" viewBox="0 0 38 38" fill="none" xmlns="http://www.w3.org/2000/svg">
<path opacity="0.1" d="M0 12C0 5.37258 5.37258 0 12 0H26C32.6274 0 38 5.37258 38 12V26C38 32.6274 32.6274 38 26 38H12C5.37258 38 0 32.6274 0 26V12Z" fill="#FDA758"/>
<g clip-path="url(#clip0_952_4883)">
<path d="M11.7986 20.6253C12.792 20.6253 13.5972 19.82 13.5972 18.8267C13.5972 17.8333 12.792 17.0281 11.7986 17.0281C10.8053 17.0281 10 17.8333 10 18.8267C10 19.82 10.8053 20.6253 11.7986 20.6253Z" fill="#FC9D45"/>
<path d="M18.993 20.6253C19.9863 20.6253 20.7916 19.82 20.7916 18.8267C20.7916 17.8333 19.9863 17.0281 18.993 17.0281C17.9996 17.0281 17.1943 17.8333 17.1943 18.8267C17.1943 19.82 17.9996 20.6253 18.993 20.6253Z" fill="#FC9D45"/>
<path d="M26.1873 20.6253C27.1806 20.6253 27.9859 19.82 27.9859 18.8267C27.9859 17.8333 27.1806 17.0281 26.1873 17.0281C25.1939 17.0281 24.3887 17.8333 24.3887 18.8267C24.3887 19.82 25.1939 20.6253 26.1873 20.6253Z" fill="#FC9D45"/>
</g>
<defs>
<clipPath id="clip0_952_4883">
<rect width="18" height="3.62529" fill="white" transform="translate(10 17)"/>
</clipPath>
</defs>
</svg>
